<svg width="759" height="327" viewBox="0 0 759 327" fill="none" xmlns="http://www.w3.org/2000/svg">
<g clip-path="url(#clip0_116_4054)">
<path d="M51 8C51 5.23858 53.2386 3 56 3H1486C1488.76 3 1491 5.23858 1491 8V44H51V8Z" fill="#DEE1E6"/>
<circle cx="70" cy="23" r="5.75" fill="#FF5E5D" stroke="#E14942" stroke-width="0.5"/>
<circle cx="90" cy="23" r="5.75" fill="#FFBC4F" stroke="#E1A325" stroke-width="0.5"/>
<circle cx="110" cy="23" r="5.75" fill="#22CB58" stroke="#3EAF3F" stroke-width="0.5"/>
<rect width="1440" height="38" transform="translate(51 44)" fill="white"/>
<path fill-rule="evenodd" clip-rule="evenodd" d="M83.2197 56.2197C83.5126 55.9268 83.9874 55.9268 84.2803 56.2197C84.5732 56.5126 84.5732 56.9874 84.2803 57.2803L79.0607 62.5H89.25C89.6642 62.5 90 62.8358 90 63.25C90 63.6642 89.6642 64 89.25 64H79.0607L84.2803 69.2197C84.5732 69.5126 84.5732 69.9874 84.2803 70.2803C83.9874 70.5732 83.5126 70.5732 83.2197 70.2803L76.7197 63.7803C76.4268 63.4874 76.4268 63.0126 76.7197 62.7197L83.2197 56.2197Z" fill="#5F6368"/>
<path fill-rule="evenodd" clip-rule="evenodd" d="M114.78 56.2197C114.487 55.9268 114.013 55.9268 113.72 56.2197C113.427 56.5126 113.427 56.9874 113.72 57.2803L118.939 62.5H108.75C108.336 62.5 108 62.8358 108 63.25C108 63.6642 108.336 64 108.75 64H118.939L113.72 69.2197C113.427 69.5126 113.427 69.9874 113.72 70.2803C114.013 70.5732 114.487 70.5732 114.78 70.2803L121.28 63.7803C121.573 63.4874 121.573 63.0126 121.28 62.7197L114.78 56.2197Z" fill="#BABCBE"/>
<path fill-rule="evenodd" clip-rule="evenodd" d="M152.336 57.65C152.336 57.291 152.045 57 151.686 57C151.327 57 151.036 57.291 151.036 57.65V59.8625C150.466 59.1474 149.742 58.5619 148.911 58.154C147.65 57.5345 146.215 57.3608 144.842 57.6612C143.469 57.9615 142.239 58.7182 141.351 59.8078C140.463 60.8974 139.97 62.2557 139.954 63.6612C139.937 65.0666 140.397 66.4363 141.258 67.5468C142.12 68.6574 143.332 69.4433 144.697 69.7764C146.063 70.1095 147.501 69.9702 148.777 69.3811C150.053 68.792 151.092 67.7879 151.725 66.5326C151.886 66.212 151.757 65.8212 151.436 65.6597C151.116 65.4982 150.725 65.6272 150.563 65.9478C150.063 66.9407 149.242 67.7348 148.232 68.2008C147.223 68.6667 146.086 68.7769 145.006 68.5134C143.926 68.25 142.967 67.6284 142.285 66.75C141.604 65.8716 141.24 64.7883 141.253 63.6767C141.267 62.5651 141.656 61.4908 142.359 60.629C143.061 59.7672 144.034 59.1687 145.12 58.9311C146.206 58.6936 147.341 58.831 148.339 59.3209C149.182 59.7349 149.885 60.3799 150.371 61.176H147.974C147.615 61.176 147.324 61.467 147.324 61.826C147.324 62.185 147.615 62.476 147.974 62.476H151.686C152.045 62.476 152.336 62.185 152.336 61.826V57.65Z" fill="#5F6368"/>
<path fill-rule="evenodd" clip-rule="evenodd" d="M179.888 56.9404C179.634 56.6865 179.222 56.6865 178.968 56.9404L172.436 63.4723C172.183 63.7261 172.183 64.1377 172.436 64.3915C172.69 64.6454 173.102 64.6454 173.356 64.3915L174.423 63.3238V69.5929C174.423 69.9519 174.714 70.2429 175.073 70.2429H183.783C184.142 70.2429 184.433 69.9519 184.433 69.5929V63.3239L185.5 64.3915C185.754 64.6454 186.166 64.6454 186.419 64.3915C186.673 64.1377 186.673 63.7261 186.419 63.4723L184.247 61.2999C184.244 61.2966 184.241 61.2934 184.237 61.2902L179.888 56.9404ZM183.133 62.0239L179.428 58.3192L175.723 62.0238V68.9429H183.133V62.0239Z" fill="#5F6368"/>
<rect x="203" y="49" width="1115" height="28" rx="14" fill="#F1F3F4"/>
<path d="M377 44H121C125.4 44 129 40.4 129 36V18C129 13.6 132.6 10 137 10H361C365.4 10 369 13.6 369 18V36C369 40.4 372.6 44 377 44Z" fill="white"/>
<g clip-path="url(#clip1_116_4054)">
<path d="M154.86 26.4224C154.86 25.9465 154.82 25.4681 154.736 25H148V27.6956H151.858C151.697 28.5649 151.183 29.334 150.43 29.8227V31.5717H152.731C154.083 30.3526 154.86 28.5521 154.86 26.4224Z" fill="#4285F4"/>
<path d="M148.14 33.0024C150.066 33.0024 151.69 32.3825 152.874 31.3125L150.572 29.5635C149.932 29.9905 149.106 30.2322 148.142 30.2322C146.279 30.2322 144.7 29.0002 144.133 27.3438H141.758V29.1468C142.97 31.5106 145.44 33.0024 148.14 33.0024V33.0024Z" fill="#34A853"/>
<path d="M144.13 27.3426C143.831 26.4732 143.831 25.5318 144.13 24.6624V22.8594H141.758C140.745 24.8373 140.745 27.1677 141.758 29.1456L144.13 27.3426V27.3426Z" fill="#FBBC04"/>
<path d="M148.14 21.7706C149.158 21.7552 150.142 22.1307 150.879 22.8201L152.918 20.8215C151.627 19.6332 149.914 18.9799 148.14 19.0005C145.44 19.0005 142.97 20.4923 141.758 22.8586L144.13 24.6617C144.694 23.0027 146.277 21.7706 148.14 21.7706V21.7706Z" fill="#EA4335"/>
</g>
<path d="M351 24L357 30M351 30L357 24" stroke="#5F6368" stroke-width="1.3" stroke-linecap="round" stroke-linejoin="round"/>
<path d="M617 10H361C365.4 10 369 13.6 369 18V36C369 40.4 372.6 44 377 44H601C605.4 44 609 40.4 609 36V18C609 13.6 612.6 10 617 10Z" fill="#DEE1E6"/>
<path d="M385 22V32.0001M380 27H390" stroke="#5F6368" stroke-width="1.5" stroke-linecap="round" stroke-linejoin="round"/>
<path d="M1491 81H51V83H1491V81Z" fill="black" fill-opacity="0.05" mask="url(#path-1-outside-1_116_4054)"/>
<line x1="114.5" y1="82" x2="114.5" y2="1374" stroke="#EBEEF0"/>
<path d="M91.5156 174.031C91.7891 174.266 91.7891 174.656 91.5547 174.93C91.3594 175.203 90.9688 175.203 90.6953 174.969L89.25 173.68V181.375C89.25 183.133 87.8438 184.5 86.125 184.5H74.875C73.1172 184.5 71.75 183.133 71.75 181.375V173.68L70.2656 174.969C69.9922 175.203 69.6016 175.203 69.4062 174.93C69.1719 174.656 69.1719 174.266 69.4453 174.031L80.0703 164.695C80.3047 164.461 80.6562 164.461 80.8906 164.695L91.5156 174.031ZM74.875 183.25H77.375V177C77.375 176.336 77.9219 175.75 78.625 175.75H82.375C83.0391 175.75 83.625 176.336 83.625 177V183.25H86.125C87.1406 183.25 88 182.43 88 181.375V172.586L80.5 165.984L73 172.586V181.375C73 182.43 73.8203 183.25 74.875 183.25ZM78.625 183.25H82.375V177H78.625V183.25Z" fill="#505A62"/>
<path d="M88.4609 209.5C89.8672 209.5 90.9609 210.633 90.9609 212V223.172C90.9609 224.5 89.8281 225.633 88.4609 225.633H82.8359L77.9531 229.305C77.6406 229.5 77.2109 229.305 77.2109 228.914V225.672H73.4609C72.0547 225.672 70.9609 224.578 70.9609 223.211V212C70.9609 210.633 72.0547 209.5 73.4609 209.5H88.4609ZM89.75 223.25V212C89.75 211.336 89.1641 210.75 88.5 210.75H73.5C72.7969 210.75 72.25 211.336 72.25 212V223.25C72.25 223.953 72.7969 224.5 73.5 224.5H77.875C78.1875 224.5 78.5 224.812 78.5 225.125V227.469L82.0938 224.773C82.3281 224.617 82.5625 224.5 82.8359 224.5H88.5C89.1641 224.5 89.75 223.953 89.75 223.25ZM81.625 218.875C81.9375 218.875 82.2109 219.188 82.2109 219.5C82.2109 219.852 81.9375 220.125 81.625 220.125H76.625C76.2734 220.125 75.9609 219.852 76 219.5C76 219.188 76.2734 218.875 76.625 218.875H81.625ZM85.375 215.125C85.6875 215.125 85.9609 215.438 85.9609 215.75C85.9609 216.102 85.6875 216.375 85.375 216.375H76.625C76.2734 216.375 75.9609 216.102 76 215.75C76 215.438 76.2734 215.125 76.625 215.125H85.375Z" fill="#505A62"/>
<line x1="57" y1="298.5" x2="101" y2="298.5" stroke="#EBEEF0"/>
<path d="M70 322.625C70 321.609 70.8203 320.75 71.875 320.75H75.625C76.6406 320.75 77.5 321.609 77.5 322.625V326.375C77.5 327.43 76.6406 328.25 75.625 328.25H71.875C70.8203 328.25 70 327.43 70 326.375V322.625ZM71.25 322.625V326.375C71.25 326.727 71.5234 327 71.875 327H75.625C75.9375 327 76.25 326.727 76.25 326.375V322.625C76.25 322.312 75.9375 322 75.625 322H71.875C71.5234 322 71.25 322.312 71.25 322.625ZM70 332.625C70 331.609 70.8203 330.75 71.875 330.75H75.625C76.6406 330.75 77.5 331.609 77.5 332.625V336.375C77.5 337.43 76.6406 338.25 75.625 338.25H71.875C70.8203 338.25 70 337.43 70 336.375V332.625ZM71.25 332.625V336.375C71.25 336.727 71.5234 337 71.875 337H75.625C75.9375 337 76.25 336.727 76.25 336.375V332.625C76.25 332.312 75.9375 332 75.625 332H71.875C71.5234 332 71.25 332.312 71.25 332.625ZM85.625 320.75C86.6406 320.75 87.5 321.609 87.5 322.625V326.375C87.5 327.43 86.6406 328.25 85.625 328.25H81.875C80.8203 328.25 80 327.43 80 326.375V322.625C80 321.609 80.8203 320.75 81.875 320.75H85.625ZM85.625 322H81.875C81.5234 322 81.25 322.312 81.25 322.625V326.375C81.25 326.727 81.5234 327 81.875 327H85.625C85.9375 327 86.25 326.727 86.25 326.375V322.625C86.25 322.312 85.9375 322 85.625 322ZM80 332.625C80 331.609 80.8203 330.75 81.875 330.75H85.625C86.6406 330.75 87.5 331.609 87.5 332.625V336.375C87.5 337.43 86.6406 338.25 85.625 338.25H81.875C80.8203 338.25 80 337.43 80 336.375V332.625ZM81.25 332.625V336.375C81.25 336.727 81.5234 337 81.875 337H85.625C85.9375 337 86.25 336.727 86.25 336.375V332.625C86.25 332.312 85.9375 332 85.625 332H81.875C81.5234 332 81.25 332.312 81.25 332.625Z" fill="#505A62"/>
<g clip-path="url(#clip2_116_4054)">
<mask id="mask0_116_4054" style="mask-type:luminance" maskUnits="userSpaceOnUse" x="71" y="252" width="20" height="20">
<path d="M91 252H71V272H91V252Z" fill="white"/>
</mask>
<g mask="url(#mask0_116_4054)">
<path fill-rule="evenodd" clip-rule="evenodd" d="M87.8757 252C88.0656 252 88.2452 252.086 88.3638 252.235L90.8638 255.36C91.0463 255.588 91.0463 255.912 90.8638 256.14L88.3638 259.265C88.2452 259.414 88.0656 259.5 87.8757 259.5C87.6858 259.5 87.5063 259.414 87.3877 259.265L84.8877 256.14C84.7051 255.912 84.7051 255.588 84.8877 255.36L87.3877 252.235C87.5063 252.086 87.6858 252 87.8757 252ZM86.1761 255.75L87.8757 257.875L89.5753 255.75L87.8757 253.625L86.1761 255.75ZM77.8381 255.666C78.1199 255.134 78.8815 255.134 79.1633 255.666L81.3451 259.781L85.4602 261.962C85.9918 262.244 85.9918 263.006 85.4602 263.288L81.3451 265.469L79.1633 269.584C78.8815 270.116 78.1199 270.116 77.8381 269.584L75.6564 265.469L71.5413 263.288C71.0097 263.006 71.0097 262.244 71.5413 261.962L75.6564 259.781L77.8381 255.666ZM78.5007 257.084L76.6888 260.502C76.6185 260.634 76.5101 260.743 76.3775 260.813L72.96 262.625L76.3775 264.437C76.5101 264.507 76.6185 264.616 76.6888 264.748L78.5007 268.166L80.3126 264.748C80.3829 264.616 80.4913 264.507 80.6239 264.437L84.0415 262.625L80.6239 260.813C80.4913 260.743 80.3829 260.634 80.3126 260.502L78.5007 257.084ZM88.5007 265.125C88.5007 264.78 88.2209 264.5 87.8757 264.5C87.5305 264.5 87.2507 264.78 87.2507 265.125V267H85.3757C85.0305 267 84.7507 267.28 84.7507 267.625C84.7507 267.97 85.0305 268.25 85.3757 268.25H87.2507V270.125C87.2507 270.47 87.5305 270.75 87.8757 270.75C88.2209 270.75 88.5007 270.47 88.5007 270.125V268.25H90.3757C90.7209 268.25 91.0007 267.97 91.0007 267.625C91.0007 267.28 90.7209 267 90.3757 267H88.5007V265.125Z" fill="#505A62"/>
</g>
</g>
<rect x="54" y="87" width="53" height="54" rx="19" fill="#F7FAFF"/>
<g clip-path="url(#clip3_116_4054)">
<path fill-rule="evenodd" clip-rule="evenodd" d="M67.0879 121.904C66.7776 122.431 66.4292 123.042 66.1332 123.529C65.8683 123.995 66.0105 124.595 66.453 124.88L72.6585 128.854C72.8763 128.994 73.139 129.037 73.3876 128.974C73.6362 128.91 73.8499 128.745 73.9807 128.516C74.2289 128.084 74.5487 127.523 74.8972 126.922C77.3555 122.699 79.8281 123.216 84.2865 125.431L90.4394 128.477C90.6724 128.592 90.9404 128.604 91.1823 128.511C91.4243 128.417 91.6194 128.226 91.7234 127.98L94.6782 121.025C94.8869 120.528 94.6745 119.949 94.2008 119.723C92.9025 119.088 90.3201 117.821 87.9954 116.653C79.6324 112.426 72.5248 112.699 67.0879 121.904Z" fill="url(#paint0_linear_116_4054)"/>
<path fill-rule="evenodd" clip-rule="evenodd" d="M94.9123 106.119C95.2225 105.593 95.571 104.982 95.8669 104.495C96.1318 104.029 95.9896 103.428 95.5471 103.144L89.3417 99.1695C89.1221 99.0156 88.8509 98.9635 88.593 99.0256C88.3351 99.0878 88.1135 99.2586 87.9813 99.4974C87.7331 99.9296 87.4132 100.491 87.0648 101.092C84.6065 105.315 82.1339 104.798 77.6755 102.582L71.5417 99.552C71.3086 99.4366 71.0406 99.4242 70.7987 99.5178C70.5568 99.6114 70.3616 99.803 70.2576 100.049L67.3029 107.004C67.0941 107.5 67.3065 108.08 67.7802 108.305C69.0786 108.941 71.661 110.208 73.9857 111.375C82.3678 115.598 89.4754 115.315 94.9123 106.119Z" fill="url(#paint1_linear_116_4054)"/>
</g>
<mask id="path-30-inside-2_116_4054" fill="white">
<path d="M115 84H1967V145H115V84Z"/>
</mask>
<path d="M115 84H1967V145H115V84Z" fill="white"/>
<path d="M167.575 112.905C168.005 113.435 168.22 114.09 168.22 114.87V120H166.75V116.52H164.005C163.365 116.52 162.925 116.615 162.685 116.805C162.455 116.985 162.34 117.28 162.34 117.69C162.34 118.41 162.86 118.77 163.9 118.77C164.17 118.77 164.45 118.755 164.74 118.725C165.03 118.685 165.26 118.64 165.43 118.59V119.91C165.23 119.97 164.955 120.02 164.605 120.06C164.255 120.1 163.95 120.12 163.69 120.12C162.8 120.12 162.1 119.91 161.59 119.49C161.09 119.06 160.84 118.46 160.84 117.69C160.84 116.91 161.08 116.31 161.56 115.89C162.05 115.47 162.785 115.26 163.765 115.26H166.75V115.02C166.75 113.72 166.025 113.07 164.575 113.07C163.985 113.07 163.525 113.18 163.195 113.4C162.865 113.61 162.675 113.91 162.625 114.3H161.155C161.215 113.55 161.54 112.935 162.13 112.455C162.73 111.965 163.575 111.72 164.665 111.72C165.355 111.72 165.97 111.845 166.51 112.095L167.17 111.3H168.91L167.575 112.905ZM161.918 109.5H168.218V110.67H161.918V109.5ZM178.028 111.9V120H176.588V118.95C175.998 119.77 175.093 120.18 173.873 120.18C173.303 120.18 172.778 120.055 172.298 119.805C171.828 119.555 171.448 119.185 171.158 118.695C170.878 118.205 170.738 117.62 170.738 116.94V111.9H172.208V116.55C172.208 117.31 172.388 117.88 172.748 118.26C173.108 118.64 173.583 118.83 174.173 118.83C174.893 118.83 175.468 118.62 175.898 118.2C176.338 117.78 176.558 117.18 176.558 116.4V111.9H178.028ZM184.301 111.72C185.001 111.72 185.631 111.85 186.191 112.11C186.761 112.37 187.206 112.765 187.526 113.295C187.856 113.825 188.021 114.475 188.021 115.245V120H186.551V115.395C186.551 114.615 186.346 114.035 185.936 113.655C185.536 113.265 184.991 113.07 184.301 113.07C183.611 113.07 183.061 113.265 182.651 113.655C182.251 114.035 182.051 114.615 182.051 115.395V116.19C182.381 115.71 182.931 115.47 183.701 115.47H184.886V116.79H183.881C183.221 116.79 182.751 116.93 182.471 117.21C182.191 117.48 182.051 117.94 182.051 118.59V120H180.581V115.245C180.581 114.475 180.741 113.825 181.061 113.295C181.391 112.765 181.836 112.37 182.396 112.11C182.966 111.85 183.601 111.72 184.301 111.72ZM188.952 110.7H184.977V109.41C184.977 109.26 184.947 109.155 184.887 109.095C184.817 109.025 184.707 108.99 184.557 108.99H183.702V107.85H185.247C185.947 107.85 186.297 108.2 186.297 108.9V109.5H188.952V110.7ZM192.942 111.72C193.942 111.72 194.742 111.995 195.342 112.545C195.942 113.085 196.242 113.82 196.242 114.75V120H194.772V114.96C194.772 114.35 194.607 113.88 194.277 113.55C193.957 113.21 193.482 113.04 192.852 113.04C192.342 113.04 191.942 113.15 191.652 113.37C191.362 113.58 191.202 113.855 191.172 114.195H189.732C189.782 113.485 190.077 112.895 190.617 112.425C191.167 111.955 191.942 111.72 192.942 111.72ZM209.901 120L209.061 119.055C208.661 119.425 208.196 119.705 207.666 119.895C207.146 120.085 206.591 120.18 206.001 120.18C205.261 120.18 204.601 120.055 204.021 119.805C203.441 119.545 202.986 119.175 202.656 118.695C202.336 118.215 202.176 117.64 202.176 116.97C202.176 116.19 202.381 115.58 202.791 115.14C203.201 114.69 203.771 114.29 204.501 113.94C204.131 113.54 203.846 113.175 203.646 112.845C203.446 112.515 203.346 112.135 203.346 111.705C203.346 111.025 203.576 110.47 204.036 110.04C204.506 109.6 205.166 109.38 206.016 109.38C206.786 109.38 207.421 109.585 207.921 109.995C208.431 110.395 208.686 110.935 208.686 111.615C208.686 112.295 208.506 112.84 208.146 113.25C207.796 113.66 207.301 114.025 206.661 114.345L208.896 116.85C209.106 116.31 209.211 115.655 209.211 114.885H210.711C210.711 116.095 210.451 117.14 209.931 118.02L211.686 120H209.901ZM204.846 111.675C204.846 111.955 204.921 112.22 205.071 112.47C205.231 112.71 205.466 113.005 205.776 113.355C206.236 113.125 206.586 112.885 206.826 112.635C207.066 112.375 207.186 112.05 207.186 111.66C207.186 111.35 207.076 111.105 206.856 110.925C206.636 110.735 206.361 110.64 206.031 110.64C205.661 110.64 205.371 110.73 205.161 110.91C204.951 111.08 204.846 111.335 204.846 111.675ZM206.046 118.8C206.886 118.8 207.581 118.54 208.131 118.02L205.386 114.945C204.846 115.215 204.431 115.5 204.141 115.8C203.851 116.1 203.706 116.485 203.706 116.955C203.706 117.535 203.926 117.99 204.366 118.32C204.816 118.64 205.376 118.8 206.046 118.8ZM224.799 111.9V120H223.269L220.914 116.115L218.499 120H216.969V113.37C216.969 112.85 217.084 112.475 217.314 112.245C217.554 112.015 217.939 111.9 218.469 111.9H219.849V113.25H218.964C218.774 113.25 218.634 113.29 218.544 113.37C218.464 113.45 218.424 113.58 218.424 113.76V117.87L220.269 114.9H221.559L223.344 117.825V111.9H224.799ZM230.759 111.72C231.799 111.72 232.649 111.985 233.309 112.515C233.979 113.045 234.314 113.83 234.314 114.87V120H232.844V116.52H230.099C229.459 116.52 229.019 116.615 228.779 116.805C228.549 116.985 228.434 117.28 228.434 117.69C228.434 118.41 228.954 118.77 229.994 118.77C230.264 118.77 230.544 118.755 230.834 118.725C231.124 118.685 231.354 118.64 231.524 118.59V119.91C231.324 119.97 231.049 120.02 230.699 120.06C230.349 120.1 230.044 120.12 229.784 120.12C228.894 120.12 228.194 119.91 227.684 119.49C227.184 119.06 226.934 118.46 226.934 117.69C226.934 116.91 227.174 116.31 227.654 115.89C228.144 115.47 228.879 115.26 229.859 115.26H232.844V115.02C232.844 114.33 232.659 113.835 232.289 113.535C231.919 113.225 231.379 113.07 230.669 113.07C230.079 113.07 229.619 113.18 229.289 113.4C228.959 113.61 228.769 113.91 228.719 114.3H227.249C227.309 113.55 227.634 112.935 228.224 112.455C228.824 111.965 229.669 111.72 230.759 111.72ZM228.011 109.5H234.311V110.67H228.011V109.5ZM240.896 112.62C241.046 112.38 241.266 112.185 241.556 112.035C241.846 111.885 242.181 111.81 242.561 111.81C243.231 111.81 243.736 112.03 244.076 112.47C244.426 112.91 244.601 113.455 244.601 114.105V120H243.131V114.315C243.131 113.545 242.856 113.16 242.306 113.16C241.856 113.16 241.581 113.4 241.481 113.88H240.311C240.181 113.39 239.891 113.145 239.441 113.145C238.961 113.145 238.591 113.41 238.331 113.94C238.071 114.46 237.941 115.1 237.941 115.86C237.941 116.83 238.166 117.565 238.616 118.065C239.066 118.555 239.671 118.8 240.431 118.8C240.901 118.8 241.341 118.745 241.751 118.635V119.925C241.581 119.995 241.346 120.05 241.046 120.09C240.746 120.13 240.471 120.15 240.221 120.15C239.061 120.15 238.141 119.78 237.461 119.04C236.781 118.3 236.441 117.24 236.441 115.86C236.441 115.16 236.556 114.505 236.786 113.895C237.016 113.275 237.356 112.775 237.806 112.395C238.256 112.005 238.786 111.81 239.396 111.81C239.756 111.81 240.061 111.885 240.311 112.035C240.561 112.175 240.756 112.37 240.896 112.62ZM250.698 111.72C251.838 111.72 252.758 112.02 253.458 112.62C254.158 113.22 254.508 114.095 254.508 115.245V120H253.038V115.395C253.038 114.605 252.828 114.02 252.408 113.64C251.998 113.26 251.418 113.07 250.668 113.07C249.968 113.07 249.413 113.22 249.003 113.52C248.603 113.82 248.378 114.235 248.328 114.765H250.698V115.815C250.188 115.895 249.818 116.055 249.588 116.295C249.358 116.535 249.243 116.94 249.243 117.51V118.425C249.243 118.975 249.113 119.375 248.853 119.625C248.603 119.875 248.198 120 247.638 120H246.558V118.65H247.263C247.443 118.65 247.573 118.615 247.653 118.545C247.733 118.475 247.773 118.35 247.773 118.17V117.33C247.773 116.97 247.858 116.65 248.028 116.37C248.208 116.09 248.473 115.875 248.823 115.725H246.888V114.96C246.888 114.37 247.038 113.83 247.338 113.34C247.648 112.85 248.093 112.46 248.673 112.17C249.253 111.87 249.928 111.72 250.698 111.72ZM251.601 108.27V108.69C251.601 108.98 251.666 109.19 251.796 109.32C251.926 109.44 252.151 109.5 252.471 109.5H256.401V110.67H252.381C251.721 110.67 251.216 110.52 250.866 110.22C250.516 109.92 250.341 109.47 250.341 108.87V108.27H251.601ZM269.361 111.9V120H267.921V118.98C267.361 119.78 266.526 120.18 265.416 120.18C264.886 120.18 264.401 120.075 263.961 119.865C263.521 119.645 263.166 119.315 262.896 118.875C262.626 118.435 262.491 117.89 262.491 117.24V115.275C262.491 114.525 262.296 113.97 261.906 113.61C261.526 113.25 260.991 113.07 260.301 113.07C259.631 113.07 259.111 113.215 258.741 113.505C258.381 113.795 258.181 114.215 258.141 114.765H260.211V115.815C259.661 115.855 259.236 116.04 258.936 116.37C258.636 116.7 258.486 117.13 258.486 117.66V117.96C258.486 118.23 258.536 118.42 258.636 118.53C258.746 118.63 258.936 118.68 259.206 118.68H260.211V120H258.906C258.256 120 257.776 119.85 257.466 119.55C257.166 119.24 257.016 118.77 257.016 118.14V117.63C257.016 117.2 257.126 116.815 257.346 116.475C257.576 116.135 257.901 115.885 258.321 115.725H256.701V114.96C256.701 114.36 256.846 113.815 257.136 113.325C257.426 112.835 257.846 112.445 258.396 112.155C258.946 111.865 259.591 111.72 260.331 111.72C261.411 111.72 262.286 112.01 262.956 112.59C263.626 113.17 263.961 114.015 263.961 115.125V116.85C263.961 118.17 264.546 118.83 265.716 118.83C266.366 118.83 266.891 118.625 267.291 118.215C267.691 117.795 267.891 117.2 267.891 116.43V111.9H269.361ZM277.194 111.72C278.064 111.72 278.769 111.98 279.309 112.5C279.859 113.01 280.134 113.8 280.134 114.87V120H278.664V115.11C278.664 113.75 278.104 113.07 276.984 113.07C276.144 113.07 275.499 113.405 275.049 114.075C274.599 114.735 274.374 115.63 274.374 116.76V120H272.904V116.61C272.904 115.84 272.979 115.225 273.129 114.765C273.289 114.295 273.539 113.855 273.879 113.445L273.684 113.265C273.364 113.655 272.974 113.85 272.514 113.85C272.064 113.85 271.714 113.73 271.464 113.49C271.224 113.25 271.104 112.88 271.104 112.38V111.9H272.334V112.14C272.334 112.35 272.374 112.5 272.454 112.59C272.534 112.67 272.654 112.71 272.814 112.71C273.024 112.71 273.184 112.645 273.294 112.515C273.414 112.385 273.514 112.18 273.594 111.9H274.824V112.68C275.434 112.04 276.224 111.72 277.194 111.72ZM276.772 110.73V110.07C276.772 109.54 276.927 109.155 277.237 108.915C277.537 108.665 278.002 108.54 278.632 108.54H281.032V109.71H278.842C278.572 109.71 278.387 109.76 278.287 109.86C278.177 109.95 278.122 110.12 278.122 110.37V110.73H276.772Z" fill="#1F272E"/>
<rect x="129" y="102" width="155" height="22" rx="11" fill="#D9D9D9"/>
<rect x="297" y="102" width="25" height="22" rx="11" fill="#D9D9D9"/>
<path d="M1967 144H115V146H1967V144Z" fill="#EBEEF0" mask="url(#path-30-inside-2_116_4054)"/>
<rect x="911" y="82" width="255" height="905" transform="rotate(90 911 82)" fill="url(#paint2_linear_116_4054)"/>
<rect x="427" y="-18" width="333" height="309" fill="url(#paint3_linear_116_4054)"/>
</g>
<defs>
<linearGradient id="paint0_linear_116_4054" x1="94.5111" y1="130.906" x2="87.0832" y2="114.532" gradientUnits="userSpaceOnUse">
<stop offset="0.18" stop-color="#0052CC"/>
<stop offset="1" stop-color="#2684FF"/>
</linearGradient>
<linearGradient id="paint1_linear_116_4054" x1="67.489" y1="97.1128" x2="74.9286" y2="113.494" gradientUnits="userSpaceOnUse">
<stop offset="0.18" stop-color="#0052CC"/>
<stop offset="1" stop-color="#2684FF"/>
</linearGradient>
<linearGradient id="paint2_linear_116_4054" x1="1169.86" y1="498.028" x2="918.288" y2="499.538" gradientUnits="userSpaceOnUse">
<stop stop-color="white"/>
<stop offset="1" stop-color="white" stop-opacity="0"/>
</linearGradient>
<linearGradient id="paint3_linear_116_4054" x1="760" y1="125.116" x2="623.673" y2="125.116" gradientUnits="userSpaceOnUse">
<stop stop-color="white"/>
<stop offset="1" stop-color="white" stop-opacity="0"/>
</linearGradient>
<clipPath id="clip0_116_4054">
<rect width="759" height="327" fill="white"/>
</clipPath>
<clipPath id="clip1_116_4054">
<rect width="14" height="14" fill="white" transform="translate(141 19)"/>
</clipPath>
<clipPath id="clip2_116_4054">
<rect width="20" height="20" fill="white" transform="translate(71 252)"/>
</clipPath>
<clipPath id="clip3_116_4054">
<rect width="30" height="30" fill="white" transform="translate(66 99)"/>
</clipPath>
</defs>
</svg>
