<svg width="85" height="85" viewBox="0 0 85 85" fill="none" xmlns="http://www.w3.org/2000/svg">
<rect x="0.5" y="0.5" width="84" height="84" rx="9.5" fill="white" stroke="#EAECF0"/>
<rect width="66" height="66" transform="translate(10 10)" fill="white"/>
<path d="M43.0001 25.9531L55.4906 40.2916C56.1452 41.0428 56.5058 42.0054 56.5058 43.0017C56.5058 43.9981 56.1452 44.9607 55.4906 45.7119L43.0001 60.052L30.5096 45.7119C29.8555 44.9609 29.4951 43.9985 29.4951 43.0026C29.4951 42.0066 29.8555 41.0443 30.5096 40.2933L43.0001 25.9531Z" fill="url(#paint0_linear_43_3718)"/>
<path d="M43 60.051L49.9102 67.9859C50.2976 68.4306 50.7758 68.7871 51.3126 69.0313C51.8494 69.2755 52.4323 69.4018 53.0221 69.4016H66.925C68.019 69.4016 69.0682 68.967 69.8418 68.1934C70.6154 67.4198 71.05 66.3706 71.05 65.2766V20.7266C71.05 19.6325 70.6154 18.5833 69.8418 17.8097C69.0682 17.0362 68.019 16.6016 66.925 16.6016H53.0221C52.4323 16.6014 51.8494 16.7276 51.3126 16.9718C50.7758 17.2161 50.2976 17.5725 49.9102 18.0173L43 25.9521L55.4905 40.2923C56.1446 41.0433 56.505 42.0056 56.505 43.0016C56.505 43.9975 56.1446 44.9598 55.4905 45.7109L43 60.051Z" fill="#00D924"/>
<path d="M43.0002 25.9521L30.5097 40.2923C29.8556 41.0433 29.4952 42.0056 29.4952 43.0016C29.4952 43.9975 29.8556 44.9598 30.5097 45.7109L43.0002 60.051L36.09 67.9859C35.7026 68.4306 35.2244 68.7871 34.6876 69.0313C34.1508 69.2755 33.5679 69.4018 32.9781 69.4016H19.0752C17.9812 69.4016 16.932 68.967 16.1584 68.1934C15.3848 67.4198 14.9502 66.3706 14.9502 65.2766V20.7266C14.9502 19.6325 15.3848 18.5833 16.1584 17.8097C16.932 17.0362 17.9812 16.6016 19.0752 16.6016H32.9781C33.5679 16.6014 34.1508 16.7276 34.6876 16.9718C35.2244 17.2161 35.7026 17.5725 36.09 18.0173L43.0002 25.9521Z" fill="url(#paint1_linear_43_3718)"/>
<defs>
<linearGradient id="paint0_linear_43_3718" x1="16.6001" y1="42.1776" x2="77.6501" y2="42.1776" gradientUnits="userSpaceOnUse">
<stop stop-color="#00D924"/>
<stop offset="1" stop-color="#00A600"/>
</linearGradient>
<linearGradient id="paint1_linear_43_3718" x1="55.3752" y1="43.0016" x2="10.0167" y2="42.1304" gradientUnits="userSpaceOnUse">
<stop stop-color="#11EFE3"/>
<stop offset="1" stop-color="#21CFE0"/>
</linearGradient>
</defs>
</svg>
