<svg width="178" height="148" viewBox="0 0 178 148" fill="none" xmlns="http://www.w3.org/2000/svg">
<g filter="url(#filter0_d_569_4500)">
<g clip-path="url(#clip0_569_4500)">
<g filter="url(#filter1_d_569_4500)">
<rect x="47" y="36" width="90.125" height="65.5455" fill="white"/>
</g>
<path d="M106.928 72.1485C108.444 70.3758 111.185 70.3758 112.701 72.1485L151.757 117.81C153.865 120.275 152.114 124.078 148.87 124.078H70.759C67.5155 124.078 65.764 120.275 67.8723 117.81L106.928 72.1485Z" fill="url(#paint0_linear_569_4500)"/>
<g filter="url(#filter2_d_569_4500)">
<path d="M76.8244 64.2083C78.3446 62.3375 81.2004 62.3375 82.7206 64.2083L119.677 109.69C121.695 112.172 119.928 115.884 116.729 115.884H42.8156C39.6169 115.884 37.8503 112.172 39.8675 109.69L76.8244 64.2083Z" fill="url(#paint1_linear_569_4500)"/>
</g>
<circle cx="111.18" cy="53.7529" r="6.82765" fill="black"/>
<g filter="url(#filter3_d_569_4500)">
<path d="M123 61.675C123 61.3094 123.281 61 123.647 61C123.787 61 123.956 61.0844 124.069 61.1687L131.775 68.0312C131.916 68.1437 132 68.3125 132 68.4813C132 68.8469 131.719 69.1 131.353 69.1H128.034L129.638 72.3063C129.863 72.7563 129.694 73.2906 129.244 73.5156C128.794 73.7406 128.259 73.5719 128.034 73.1219L126.403 69.8312L124.069 72.5031C123.956 72.6437 123.787 72.7 123.619 72.7C123.253 72.7 123 72.4469 123 72.0813V61.675Z" fill="black"/>
</g>
</g>
</g>
<g filter="url(#filter4_d_569_4500)">
<rect x="6.3335" y="29.3333" width="57.3333" height="25.3333" fill="white"/>
<rect x="6.64259" y="29.6424" width="56.7151" height="24.7152" stroke="black" stroke-width="0.618182"/>
</g>
<path d="M15.7737 48.3333H13.9736L18.0183 37.0936H19.9776L24.0223 48.3333H22.2222L19.0446 39.1352H18.9568L15.7737 48.3333ZM16.0755 43.9318H21.9149V45.3588H16.0755V43.9318Z" fill="#A4A4A4"/>
<path d="M28.999 36L28.999 49.3333" stroke="black" stroke-width="1.23636"/>
<path d="M26.3335 36H31.6668" stroke="black" stroke-width="1.23636"/>
<path d="M26.3335 49.3333H31.6668" stroke="black" stroke-width="1.23636"/>
<rect x="5" y="28" width="2.66667" height="2.66667" fill="black"/>
<rect x="62.3335" y="28" width="2.66667" height="2.66667" fill="black"/>
<rect x="5" y="53.3333" width="2.66667" height="2.66667" fill="black"/>
<rect x="62.3335" y="53.3333" width="2.66667" height="2.66667" fill="black"/>
<g filter="url(#filter5_d_569_4500)">
<rect x="15" y="66" width="39" height="19" rx="1.85455" fill="white" shape-rendering="crispEdges"/>
<rect x="24" y="71" width="16" height="2" rx="0.927273" fill="#DDDDDD"/>
<circle cx="20" cy="72" r="1.76818" fill="white" stroke="black" stroke-width="0.463636"/>
<circle cx="20" cy="72" r="2" fill="black"/>
<rect x="24" y="78" width="20" height="2" rx="0.927273" fill="#DDDDDD"/>
<circle cx="20" cy="79" r="1.76818" fill="white" stroke="black" stroke-width="0.463636"/>
</g>
<path d="M147.062 40.5345C147.384 39.6639 148.616 39.6639 148.938 40.5345L149.731 42.6781C149.832 42.9518 150.048 43.1677 150.322 43.2689L152.465 44.0621C153.336 44.3843 153.336 45.6157 152.465 45.9379L150.322 46.7311C150.048 46.8323 149.832 47.0482 149.731 47.3219L148.938 49.4655C148.616 50.3361 147.384 50.3361 147.062 49.4655L146.269 47.3219C146.168 47.0482 145.952 46.8323 145.678 46.7311L143.535 45.9379C142.664 45.6157 142.664 44.3843 143.535 44.0621L145.678 43.2689C145.952 43.1677 146.168 42.9518 146.269 42.6781L147.062 40.5345Z" fill="black"/>
<defs>
<filter id="filter0_d_569_4500" x="6.48099" y="0.545864" width="171.163" height="146.583" filterUnits="userSpaceOnUse" color-interpolation-filters="sRGB">
<feFlood flood-opacity="0" result="BackgroundImageFix"/>
<feColorMatrix in="SourceAlpha" type="matrix" values="0 0 0 0 0 0 0 0 0 0 0 0 0 0 0 0 0 0 127 0" result="hardAlpha"/>
<feOffset dy="5.06488"/>
<feGaussianBlur stdDeviation="20.2595"/>
<feComposite in2="hardAlpha" operator="out"/>
<feColorMatrix type="matrix" values="0 0 0 0 0.533333 0 0 0 0 0.533333 0 0 0 0 0.533333 0 0 0 0.2 0"/>
<feBlend mode="normal" in2="BackgroundImageFix" result="effect1_dropShadow_569_4500"/>
<feBlend mode="normal" in="SourceGraphic" in2="effect1_dropShadow_569_4500" result="shape"/>
</filter>
<filter id="filter1_d_569_4500" x="34.3378" y="28.4027" width="115.449" height="90.8699" filterUnits="userSpaceOnUse" color-interpolation-filters="sRGB">
<feFlood flood-opacity="0" result="BackgroundImageFix"/>
<feColorMatrix in="SourceAlpha" type="matrix" values="0 0 0 0 0 0 0 0 0 0 0 0 0 0 0 0 0 0 127 0" result="hardAlpha"/>
<feOffset dy="5.06488"/>
<feGaussianBlur stdDeviation="6.3311"/>
<feComposite in2="hardAlpha" operator="out"/>
<feColorMatrix type="matrix" values="0 0 0 0 0 0 0 0 0 0 0 0 0 0 0 0 0 0 0.1 0"/>
<feBlend mode="normal" in2="BackgroundImageFix" result="effect1_dropShadow_569_4500"/>
<feBlend mode="normal" in="SourceGraphic" in2="effect1_dropShadow_569_4500" result="shape"/>
</filter>
<filter id="filter2_d_569_4500" x="28.88" y="52.6754" width="111.915" height="83.4682" filterUnits="userSpaceOnUse" color-interpolation-filters="sRGB">
<feFlood flood-opacity="0" result="BackgroundImageFix"/>
<feColorMatrix in="SourceAlpha" type="matrix" values="0 0 0 0 0 0 0 0 0 0 0 0 0 0 0 0 0 0 127 0" result="hardAlpha"/>
<feOffset dx="5.06488" dy="5.06488"/>
<feGaussianBlur stdDeviation="7.59731"/>
<feComposite in2="hardAlpha" operator="out"/>
<feColorMatrix type="matrix" values="0 0 0 0 0.258333 0 0 0 0 0.258333 0 0 0 0 0.258333 0 0 0 0.25 0"/>
<feBlend mode="normal" in2="BackgroundImageFix" result="effect1_dropShadow_569_4500"/>
<feBlend mode="normal" in="SourceGraphic" in2="effect1_dropShadow_569_4500" result="shape"/>
</filter>
<filter id="filter3_d_569_4500" x="115.8" y="56.68" width="23.4" height="27.0149" filterUnits="userSpaceOnUse" color-interpolation-filters="sRGB">
<feFlood flood-opacity="0" result="BackgroundImageFix"/>
<feColorMatrix in="SourceAlpha" type="matrix" values="0 0 0 0 0 0 0 0 0 0 0 0 0 0 0 0 0 0 127 0" result="hardAlpha"/>
<feOffset dy="2.88"/>
<feGaussianBlur stdDeviation="3.6"/>
<feComposite in2="hardAlpha" operator="out"/>
<feColorMatrix type="matrix" values="0 0 0 0 0 0 0 0 0 0 0 0 0 0 0 0 0 0 0.1 0"/>
<feBlend mode="normal" in2="BackgroundImageFix" result="effect1_dropShadow_569_4500"/>
<feBlend mode="normal" in="SourceGraphic" in2="effect1_dropShadow_569_4500" result="shape"/>
</filter>
<filter id="filter4_d_569_4500" x="0.151677" y="25.6242" width="69.6971" height="37.697" filterUnits="userSpaceOnUse" color-interpolation-filters="sRGB">
<feFlood flood-opacity="0" result="BackgroundImageFix"/>
<feColorMatrix in="SourceAlpha" type="matrix" values="0 0 0 0 0 0 0 0 0 0 0 0 0 0 0 0 0 0 127 0" result="hardAlpha"/>
<feOffset dy="2.47273"/>
<feGaussianBlur stdDeviation="3.09091"/>
<feComposite in2="hardAlpha" operator="out"/>
<feColorMatrix type="matrix" values="0 0 0 0 0 0 0 0 0 0 0 0 0 0 0 0 0 0 0.1 0"/>
<feBlend mode="normal" in2="BackgroundImageFix" result="effect1_dropShadow_569_4500"/>
<feBlend mode="normal" in="SourceGraphic" in2="effect1_dropShadow_569_4500" result="shape"/>
</filter>
<filter id="filter5_d_569_4500" x="0.163635" y="53.0182" width="68.6727" height="48.6727" filterUnits="userSpaceOnUse" color-interpolation-filters="sRGB">
<feFlood flood-opacity="0" result="BackgroundImageFix"/>
<feColorMatrix in="SourceAlpha" type="matrix" values="0 0 0 0 0 0 0 0 0 0 0 0 0 0 0 0 0 0 127 0" result="hardAlpha"/>
<feOffset dy="1.85455"/>
<feGaussianBlur stdDeviation="7.41818"/>
<feComposite in2="hardAlpha" operator="out"/>
<feColorMatrix type="matrix" values="0 0 0 0 0.533333 0 0 0 0 0.533333 0 0 0 0 0.533333 0 0 0 0.2 0"/>
<feBlend mode="normal" in2="BackgroundImageFix" result="effect1_dropShadow_569_4500"/>
<feBlend mode="normal" in="SourceGraphic" in2="effect1_dropShadow_569_4500" result="shape"/>
</filter>
<linearGradient id="paint0_linear_569_4500" x1="96.3988" y1="71.6097" x2="139.869" y2="116.631" gradientUnits="userSpaceOnUse">
<stop offset="0.0971185" stop-color="white"/>
<stop offset="1"/>
</linearGradient>
<linearGradient id="paint1_linear_569_4500" x1="47.8882" y1="73.9294" x2="93.7018" y2="122.116" gradientUnits="userSpaceOnUse">
<stop offset="0.244459"/>
<stop offset="1" stop-color="white"/>
</linearGradient>
<clipPath id="clip0_569_4500">
<rect x="47" y="36" width="90.125" height="65.5455" rx="7.59731" fill="white"/>
</clipPath>
</defs>
</svg>
