<svg width="18" height="19" viewBox="0 0 18 19" fill="none" xmlns="http://www.w3.org/2000/svg">
<path d="M15.4287 8.43827H14.0626V3.93827C14.0626 2.51795 12.9115 1.36684 11.4912 1.36684H6.50907C5.08876 1.36684 3.93764 2.51795 3.93764 3.93827V8.43827H2.57157C2.21599 8.43827 1.92871 8.72554 1.92871 9.08112V16.7954C1.92871 17.151 2.21599 17.4383 2.57157 17.4383H15.4287C15.7843 17.4383 16.0716 17.151 16.0716 16.7954V9.08112C16.0716 8.72554 15.7843 8.43827 15.4287 8.43827ZM5.38407 3.93827C5.38407 3.31751 5.88831 2.81327 6.50907 2.81327H11.4912C12.112 2.81327 12.6162 3.31751 12.6162 3.93827V8.43827H5.38407V3.93827ZM14.6251 15.9918H3.37514V9.88469H14.6251V15.9918ZM8.43764 13.1994V14.2642C8.43764 14.3526 8.50996 14.4249 8.59835 14.4249H9.40193C9.49032 14.4249 9.56264 14.3526 9.56264 14.2642V13.1994C9.72847 13.0804 9.85225 12.9118 9.91615 12.7179C9.98006 12.524 9.98079 12.3148 9.91826 12.1205C9.85572 11.9262 9.73314 11.7567 9.56815 11.6365C9.40316 11.5162 9.20428 11.4515 9.00014 11.4515C8.796 11.4515 8.59712 11.5162 8.43213 11.6365C8.26714 11.7567 8.14456 11.9262 8.08202 12.1205C8.01948 12.3148 8.02022 12.524 8.08413 12.7179C8.14803 12.9118 8.27181 13.0804 8.43764 13.1994Z" fill="black" fill-opacity="0.85"/>
</svg>
