<svg width="133" height="32" viewBox="0 0 133 32" fill="none" xmlns="http://www.w3.org/2000/svg">
<path fill-rule="evenodd" clip-rule="evenodd" d="M13.7447 3.76366L6.77197 7.81611C5.16726 8.74874 4.17871 10.4723 4.17871 12.3376V20.4838C4.17871 22.3491 5.16726 24.0726 6.77197 25.0053L13.7803 29.0784C15.385 30.011 17.3621 30.011 18.9668 29.0784L23.329 26.5432L13.7857 20.9379C12.1926 20.0022 11.213 18.2851 11.213 16.4284V8.27232C11.213 6.28799 12.266 4.67203 13.7478 3.7853C13.7879 3.76134 13.7783 3.74419 13.7447 3.76366Z" fill="url(#paint0_linear_866_27983)"/>
<path fill-rule="evenodd" clip-rule="evenodd" d="M28.6307 12.2923L28.6344 20.3907C28.6344 20.4296 28.6149 20.4294 28.6142 20.3825C28.6033 19.5523 27.0539 19.0731 25.442 18.5746C23.688 18.0322 21.86 17.467 21.86 16.4014C21.86 14.3736 21.2543 13.7511 20.8319 13.317L20.8213 13.3062C20.4687 12.9437 20.3409 12.8607 20.0923 12.6991C20.0428 12.6669 19.9885 12.6317 19.9267 12.5905C19.6043 12.3755 19.4881 12.3174 19.0745 12.1107L19.0321 12.0895C18.5836 11.8652 18.1732 11.6958 18.1732 11.6958C15.9545 10.9086 15.3071 10.8093 14.0221 11.839C14.0221 11.839 12.5191 13.3062 11.9466 14.6303C11.3991 15.8963 11.242 17.015 11.4504 17.7521C12.5175 19.8493 13.0767 20.222 14.2137 20.98C14.2671 21.0156 14.3217 21.052 14.3778 21.0895C14.3778 21.0895 16.6194 22.4831 17.8941 21.8458C19.0766 21.2545 23.8251 24.9186 23.8251 24.9186L18.7881 29.0784C17.1834 30.011 15.2063 30.011 13.6016 29.0784L6.59326 25.0053C4.98854 24.0726 4 22.3491 4 20.4838V12.3376C4 10.4723 4.98854 8.74874 6.59326 7.81611L13.566 3.76366C13.5995 3.74418 13.6092 3.76134 13.5691 3.7853C13.4888 3.83334 13.4086 3.90109 13.3286 3.98657L13.8267 3.6977C15.4323 2.76657 17.411 2.76749 19.0174 3.70012L26.0333 7.77324C27.6397 8.70587 28.6298 10.4285 28.6307 12.2923Z" fill="url(#paint1_linear_866_27983)"/>
<path fill-rule="evenodd" clip-rule="evenodd" d="M6.91017 25.2083L13.9409 29.3074C15.562 30.2435 17.6097 30.2248 19.2317 29.2871L26.3158 25.1921C27.9378 24.2545 28.9376 22.5225 28.9384 20.6488L28.9422 12.4653C28.9431 10.5915 27.945 8.86055 26.3238 7.92441L21.9168 5.37964C21.9168 5.37964 21.8699 14.6876 21.8604 16.5528C21.851 18.4179 20.8525 20.1387 19.2378 21.0721L12.1452 25.172C10.4196 26.1695 8.48274 26.0599 6.96351 25.2083C6.92246 25.1853 6.87631 25.1887 6.91017 25.2083Z" fill="url(#paint2_linear_866_27983)"/>
<path d="M39.238 20.8389V20.5839L43.114 14.4469C43.233 14.2599 43.369 14.0899 43.522 13.9029H39.425V11.9989H47.041V12.2539L43.131 18.4929C43.046 18.6459 42.927 18.7819 42.808 18.9349H46.956V20.8389H39.238ZM52.8246 21.0599C50.3936 21.0599 48.4556 19.0029 48.4556 16.4529C48.4556 13.9029 50.3936 11.8119 52.8246 11.8119C54.3546 11.8119 55.1536 12.4409 55.6296 13.3929V11.9989H57.9076V20.8389H55.6806V19.3939C55.2046 20.3969 54.4056 21.0599 52.8246 21.0599ZM50.7506 16.4359C50.7506 17.7789 51.7366 18.9859 53.1986 18.9859C54.7116 18.9859 55.6806 17.8299 55.6806 16.4529C55.6806 15.0759 54.7116 13.8859 53.1986 13.8859C51.7366 13.8859 50.7506 15.0589 50.7506 16.4359ZM62.7902 20.8389L59.1012 11.9989H61.8212L63.5892 17.0479C63.7422 17.4729 63.8782 17.9999 63.9632 18.4589C64.0482 17.9999 64.1842 17.4729 64.3372 17.0479L66.1052 11.9989H68.7742L65.1022 20.8389H62.7902ZM69.9652 20.8389V11.9989H72.2602V20.8389H69.9652ZM69.7272 9.90787C69.7272 9.17687 70.3222 8.56487 71.1042 8.56487C71.9032 8.56487 72.4812 9.17687 72.4812 9.90787C72.4812 10.6729 71.9032 11.2679 71.1042 11.2679C70.3222 11.2679 69.7272 10.6559 69.7272 9.90787ZM78.4116 21.0599C75.9806 21.0599 74.0426 19.0029 74.0426 16.4529C74.0426 13.9029 75.9806 11.8119 78.4116 11.8119C79.9416 11.8119 80.7406 12.4409 81.2166 13.3929V11.9989H83.4946V20.8389H81.2676V19.3939C80.7916 20.3969 79.9926 21.0599 78.4116 21.0599ZM76.3376 16.4359C76.3376 17.7789 77.3236 18.9859 78.7856 18.9859C80.2986 18.9859 81.2676 17.8299 81.2676 16.4529C81.2676 15.0759 80.2986 13.8859 78.7856 13.8859C77.3236 13.8859 76.3376 15.0589 76.3376 16.4359ZM89.9242 24.4599C88.1392 24.4599 86.7452 24.0349 85.6912 22.7939L87.1192 21.1109C87.9522 22.0629 88.8362 22.3349 89.9412 22.3349C91.1652 22.3349 92.2362 21.3319 92.2362 19.9209V19.5299C91.7602 20.3459 90.9952 20.8899 89.5672 20.8899C87.1362 20.8899 85.2832 18.8839 85.2832 16.3339C85.2832 13.7839 87.1362 11.7779 89.5672 11.7779C91.0292 11.7779 91.8112 12.3389 92.2702 13.2059V11.9989H94.5312V20.0569C94.5312 22.7769 92.6272 24.4599 89.9242 24.4599ZM87.5782 16.3339C87.5782 17.6769 88.4452 18.7989 89.9412 18.7989C91.4542 18.7989 92.3382 17.7109 92.3382 16.3339C92.3382 14.9569 91.4542 13.8689 89.9412 13.8689C88.4452 13.8689 87.5782 14.9569 87.5782 16.3339ZM101.017 21.0599C98.2799 21.0599 96.3079 18.9859 96.3079 16.4359C96.3079 13.8859 98.2799 11.7949 101.017 11.7949C103.754 11.7949 105.726 13.8859 105.726 16.4359C105.726 18.9859 103.754 21.0599 101.017 21.0599ZM98.6029 16.4359C98.6029 17.8129 99.5549 18.9689 101.017 18.9689C102.479 18.9689 103.431 17.8129 103.431 16.4359C103.431 15.0589 102.479 13.8859 101.017 13.8859C99.5549 13.8859 98.6029 15.0589 98.6029 16.4359ZM108.059 20.9819C107.487 20.9819 107.069 20.5419 107.069 20.0139C107.069 19.4969 107.487 19.0569 108.059 19.0569C108.631 19.0569 109.038 19.4969 109.038 20.0139C109.038 20.5419 108.631 20.9819 108.059 20.9819ZM112.724 20.9819C111.085 20.9819 109.776 19.6399 109.776 17.9789C109.776 16.3179 111.052 14.9869 112.801 14.9759C113.846 14.9649 114.693 15.3719 115.177 16.0429L114.033 16.9779C113.769 16.5819 113.329 16.3289 112.823 16.3289C111.877 16.3289 111.261 17.0879 111.261 17.9789C111.261 18.8699 111.91 19.6289 112.856 19.6289C113.428 19.6289 113.802 19.3429 114.099 18.9469L115.177 19.8819C114.638 20.5749 113.846 20.9819 112.724 20.9819ZM118.721 20.9819C116.95 20.9819 115.674 19.6399 115.674 17.9899C115.674 16.3399 116.95 14.9869 118.721 14.9869C120.492 14.9869 121.768 16.3399 121.768 17.9899C121.768 19.6399 120.492 20.9819 118.721 20.9819ZM117.159 17.9899C117.159 18.8809 117.775 19.6289 118.721 19.6289C119.667 19.6289 120.283 18.8809 120.283 17.9899C120.283 17.0989 119.667 16.3399 118.721 16.3399C117.775 16.3399 117.159 17.0989 117.159 17.9899ZM122.921 20.8389V15.1189H124.384V15.9549C124.681 15.3169 125.253 14.9869 126.133 14.9869C126.936 14.9869 127.618 15.3719 127.992 16.0649C128.377 15.3719 128.927 14.9869 129.928 14.9869C131.16 14.9869 132.106 15.8999 132.106 17.3409V20.8389H130.621V17.7039C130.621 16.7139 130.148 16.2849 129.477 16.2849C128.784 16.2849 128.311 16.6039 128.311 17.7039V20.8389H126.826V17.7039C126.826 16.7139 126.331 16.2849 125.594 16.2849C124.967 16.2849 124.406 16.7139 124.406 17.7039V20.8389H122.921Z" fill="#1D2D35"/>
<defs>
<linearGradient id="paint0_linear_866_27983" x1="13.7539" y1="3.75522" x2="13.7539" y2="29.7779" gradientUnits="userSpaceOnUse">
<stop stop-color="#AD7EE1"/>
<stop offset="1" stop-color="#2A64BB"/>
</linearGradient>
<linearGradient id="paint1_linear_866_27983" x1="5.26177" y1="9.40987" x2="23.0818" y2="20.3135" gradientUnits="userSpaceOnUse">
<stop stop-color="#2F99FF"/>
<stop offset="0.640625" stop-color="#2269F5"/>
<stop offset="1" stop-color="#002C7D"/>
</linearGradient>
<linearGradient id="paint2_linear_866_27983" x1="17.9576" y1="31.7751" x2="30.3898" y2="13.3142" gradientUnits="userSpaceOnUse">
<stop stop-color="#24A5FA"/>
<stop offset="0.144893" stop-color="#23AEFE"/>
<stop offset="0.486653" stop-color="#55C7FF"/>
<stop offset="0.723512" stop-color="#57C6FF"/>
<stop offset="1" stop-color="#24A5F9"/>
</linearGradient>
</defs>
</svg>
